<?xml version="1.0" encoding="UTF-8" standalone="no"?>
<svg
   version="1.1"
   viewBox="0 0 713.11151 713.11151"
   id="svg16"
   sodipodi:docname="takt_icon.svg"
   width="713.11151"
   height="713.11151"
   inkscape:version="1.4.3 (0d15f75, 2025-12-25)"
   xmlns:inkscape="http://www.inkscape.org/namespaces/inkscape"
   xmlns:sodipodi="http://sodipodi.sourceforge.net/DTD/sodipodi-0.dtd"
   xmlns="http://www.w3.org/2000/svg"
   xmlns:svg="http://www.w3.org/2000/svg">
  <defs
     id="defs16" />
  <sodipodi:namedview
     id="namedview16"
     pagecolor="#ffffff"
     bordercolor="#000000"
     borderopacity="0.25"
     inkscape:showpageshadow="2"
     inkscape:pageopacity="0.0"
     inkscape:pagecheckerboard="0"
     inkscape:deskcolor="#d1d1d1"
     inkscape:zoom="0.8051626"
     inkscape:cx="716.00444"
     inkscape:cy="327.26309"
     inkscape:window-width="2236"
     inkscape:window-height="1212"
     inkscape:window-x="721"
     inkscape:window-y="55"
     inkscape:window-maximized="0"
     inkscape:current-layer="svg16" />
  <rect
     style="fill:#fdfaf1;fill-opacity:1;stroke:none;stroke-width:3;stroke-linecap:round;stroke-linejoin:round"
     id="rect16"
     width="713.11151"
     height="713.11151"
     x="0"
     y="0"
     ry="70.257286" />
  <g
     id="g16"
     transform="translate(-21.977219,5.8768597)">
    <path
       fill="#282829"
       d="m 216.69,578.4501 c -0.0684,0.079 -0.18598,0.092 -0.27,0.03 h -0.01 c -0.0838,-0.0673 -0.10541,-0.18387 -0.05,-0.27 3.43333,-5.28667 5.26333,-8.09334 5.49,-8.42 84.41333,-121.4 64.17895,-97.79247 85.95895,-128.53247 30.24667,-42.7 47.90737,-63.11745 60.43404,-81.12412 25.27333,-36.34 47.44333,-67.90333 66.51,-94.69 10.38,-14.57 23.29,-33.75 31.58,-45.49 10.79333,-15.28667 20.11667,-28.69 27.97,-40.21 4.67333,-6.86667 8.34667,-12.08667 11.02,-15.66 5.03,-6.74 9.09,-13.39 14.45,-21.08 21.78667,-31.21333 34.13667,-48.9 37.05,-53.06 2.08,-2.96 4.21,-7.97 7.1,-10.63 3.06,-2.8 5.16,-4.73 8.87,-5.69 1.22,-0.31333 2.44,-0.93667 3.66,-1.87 0.52432,-0.4018 1.28955,-0.18813 1.54,0.43 2.99,7.45 -0.05,15.06 -3.17,22.37 -2.01,4.7 -6.36,8.8 -9.14,13 -2.96667,4.47333 -5.98667,8.98333 -9.06,13.53 -5.43,8.02 -15.18,17.07 -20.2,24.48 -6.64,9.81 -10.19,15.67 -17.04,24.7 -5.61333,7.40667 -11.63667,15.71667 -18.07,24.93 -4.41,6.3 -11.78,11.9 -16.47,19.01 -4.01333,6.10667 -8.52667,12.42 -13.54,18.94 -12.75,16.58 -26.75,37.93 -36.48,50.32 -6.72,8.56 -11.44,14.74333 -14.16,18.55 -7.29333,10.20667 -11.91667,16.46 -13.87,18.76 -2.34,2.74 -7.76333,10.07667 -16.27,22.01 -4.47333,6.28667 -16.13,22.15 -16.13,22.15 -2.77333,3.75333 -11.35404,10.55745 -33.19404,40.28412 -21.19333,28.84667 -13.1568,18.46759 -77.76346,107.62093 C 221.64215,570.51189 223,569.38343 222.72,570.0501 c -0.0133,0.0267 -0.92334,1.37666 -2.73,4.05 -1.02667,1.52666 -2.12667,2.97666 -3.3,4.35 z"
       id="path16"
       sodipodi:nodetypes="ccccccccccccccccccccccccccccccscccc" />
    <circle
       fill="#282829"
       cx="194.5079"
       cy="613.14905"
       r="16.66"
       id="circle16" />
  </g>
</svg>
